<svg width="220" height="220" viewBox="0 0 220 220" fill="none" xmlns="http://www.w3.org/2000/svg">
<path fill-rule="evenodd" clip-rule="evenodd" d="M106.379 2.4223C99.8358 34.1305 81.8757 52.0403 73.565 58.8523C72.3604 59.8398 73.0785 61.7799 74.614 61.5181C75.8635 61.305 77.2785 61.0099 78.801 60.6011C80.2872 60.202 81.6325 61.9558 80.7531 63.2186L66.1453 84.1939C65.301 85.4062 66.4699 87.0004 67.88 86.5597L76.3877 83.9011C77.7245 83.4833 78.8861 84.9117 78.2046 86.1352L59.8753 119.045C59.1264 120.389 60.5824 121.886 61.9469 121.174L65.2781 119.436C66.5823 118.755 68.0123 120.104 67.4094 121.446L54.5954 149.967C54.0538 151.173 55.1725 152.46 56.4419 152.091L65.4219 149.484C66.7787 149.09 67.9123 150.568 67.18 151.777L50.23 179.744C49.5582 180.853 50.4621 182.247 51.7482 182.086L68.0781 180.045C68.7664 179.959 69.428 180.341 69.6983 180.979L74.3237 191.912C74.6567 192.699 75.5639 193.068 76.3519 192.737L98.1145 183.597C99.2522 183.119 100.465 184.097 100.239 185.31L94.3962 216.67C94.1833 217.812 95.2602 218.794 96.388 218.513C99.1755 217.82 103.856 216.832 107.883 216.832C111.638 216.832 115.437 217.691 117.849 218.369C118.997 218.692 120.156 217.707 119.957 216.531L114.669 185.245C114.466 184.044 115.665 183.089 116.791 183.555L127.729 188.081C128.531 188.413 129.449 188.021 129.765 187.213L133.139 178.592C133.499 177.67 134.619 177.318 135.442 177.867L145.955 184.875C146.145 185.002 146.361 185.085 146.586 185.119L166.563 188.094C167.965 188.303 168.889 186.676 167.991 185.579L156.057 170.993C155.023 169.729 156.394 167.931 157.887 168.595L166.814 172.562C168.116 173.141 169.444 171.805 168.857 170.507L160.918 152.941L160.018 158.252C159.837 159.321 158.763 159.992 157.723 159.685L139.744 154.384C139.597 154.34 139.456 154.278 139.325 154.2L125.498 145.903C124.67 145.407 123.598 145.648 123.062 146.451L116.287 156.614C115.952 157.117 115.387 157.419 114.782 157.419H93.0167C92.3734 157.419 91.7784 157.077 91.4543 156.522L85.3303 146.023C84.9725 145.41 85.0066 144.644 85.4176 144.065L92.8283 133.623C93.8483 132.185 96.1121 132.907 96.1121 134.67V145.497C96.1121 146.603 97.0974 147.451 98.1918 147.285L112.567 145.107C112.956 145.048 113.315 144.864 113.59 144.582L123.21 134.733C123.703 134.228 124.445 134.056 125.11 134.293L138.351 138.997C140.008 139.585 141.445 137.703 140.441 136.259L138.36 133.267C137.38 131.859 138.727 130.006 140.368 130.503L152.427 134.152L147.486 123.219C146.967 122.069 147.966 120.813 149.203 121.061L158.33 122.886C159.647 123.149 160.653 121.728 159.967 120.574L149.925 103.674H144.224C143.557 103.674 142.945 104.04 142.63 104.627L138.494 112.335C137.957 113.337 136.638 113.6 135.757 112.881L128.34 106.831C127.898 106.47 127.312 106.339 126.758 106.477L115.126 109.385C114.547 109.53 113.934 109.38 113.488 108.984L105.841 102.206C104.673 101.171 102.832 102 102.832 103.559V116.002C102.832 117.692 100.719 118.459 99.6354 117.162L89.256 104.743C88.7291 104.113 88.6932 103.207 89.1687 102.537L98.6079 89.2359C99.2151 88.3803 100.42 88.2191 101.231 88.885L113.53 98.9874C113.954 99.3362 114.514 99.473 115.052 99.3593L127.453 96.736C127.576 96.71 127.701 96.6969 127.827 96.6969H139.69C141.149 96.6969 142.007 95.0582 141.177 93.8585L137.086 87.9501C136.081 86.4987 137.538 84.6149 139.195 85.2221L152.071 89.938C152.687 89.4864 152.952 88.5939 152.465 87.8384L138.448 66.1119L121.601 61.1346C120.879 60.9213 120.101 61.1775 119.647 61.7778L114.316 68.8223C113.691 69.648 112.502 69.7816 111.709 69.1152L104.77 63.28C103.593 62.2906 101.797 63.1271 101.797 64.6644V71.0106C101.797 72.8279 99.4177 73.5103 98.4545 71.9693L92.0938 61.7921C91.7101 61.1782 91.7294 60.3947 92.1428 59.8005L98.9338 50.0384C99.403 49.3639 100.268 49.0904 101.039 49.3724L112.473 53.55C112.918 53.7125 113.408 53.6942 113.839 53.4991L123.226 49.2528C123.727 49.026 124.305 49.0398 124.794 49.2902L140.84 57.4911C142.023 58.0958 143.221 57.2998 143.446 56.2358C124.912 37.6592 115.923 25.7383 110.152 2.32235C109.726 0.596354 106.739 0.681334 106.379 2.4223Z" fill="white"/>
</svg>
