<svg width="220" height="220" viewBox="0 0 220 220" fill="none" xmlns="http://www.w3.org/2000/svg">
<g clip-path="url(#clip0_1326_88)">
<circle cx="110" cy="110" r="110" fill="black"/>
<path fill-rule="evenodd" clip-rule="evenodd" d="M107.377 16.9966C101.878 43.6427 86.7851 58.6932 79.8013 64.4177C78.7889 65.2475 79.3924 66.8779 80.6828 66.6579C81.7328 66.4789 82.9219 66.2308 84.2013 65.8873C85.4502 65.5519 86.5808 67.0258 85.8418 68.0869L73.5661 85.7136C72.8566 86.7323 73.8388 88.072 75.0238 87.7017L82.1733 85.4675C83.2967 85.1164 84.2728 86.3168 83.7002 87.345L68.2971 115.001C67.6678 116.13 68.8913 117.388 70.0379 116.79L72.8373 115.329C73.9333 114.757 75.135 115.89 74.6284 117.018L63.8601 140.986C63.4049 141.999 64.3451 143.081 65.4118 142.771L72.9582 140.58C74.0984 140.249 75.051 141.491 74.4356 142.507L60.1916 166.009C59.6271 166.941 60.3867 168.113 61.4674 167.978L75.1904 166.262C75.7687 166.19 76.3247 166.511 76.5518 167.047L80.4388 176.235C80.7186 176.896 81.481 177.206 82.1432 176.928L100.431 169.247C101.388 168.846 102.407 169.668 102.217 170.687L97.3068 197.04C97.1279 198 98.0329 198.825 98.9806 198.589C101.323 198.006 105.256 197.176 108.64 197.176C111.796 197.176 114.988 197.898 117.015 198.468C117.98 198.739 118.954 197.912 118.787 196.923L114.343 170.632C114.173 169.623 115.18 168.82 116.126 169.211L125.318 173.015C125.992 173.294 126.763 172.965 127.029 172.286L129.864 165.041C130.167 164.267 131.108 163.971 131.8 164.432L140.634 170.321C140.794 170.428 140.975 170.498 141.165 170.526L157.952 173.026C159.13 173.201 159.907 171.834 159.152 170.912L149.124 158.655C148.255 157.593 149.407 156.082 150.661 156.64L158.164 159.974C159.258 160.46 160.373 159.338 159.88 158.247L153.208 143.483L152.451 147.95C152.299 148.848 151.396 149.411 150.522 149.154L135.414 144.698C135.29 144.662 135.172 144.61 135.061 144.544L123.442 137.572C122.746 137.155 121.845 137.357 121.395 138.032L115.702 146.572C115.42 146.995 114.945 147.249 114.437 147.249H96.1464C95.6057 147.249 95.1058 146.962 94.8334 146.495L89.6871 137.673C89.3864 137.157 89.4151 136.514 89.7604 136.027L95.988 127.252C96.8452 126.044 98.7476 126.651 98.7476 128.132V137.23C98.7476 138.16 99.5756 138.872 100.495 138.733L112.575 136.903C112.902 136.853 113.204 136.698 113.435 136.462L121.519 128.185C121.934 127.761 122.557 127.616 123.116 127.815L134.243 131.768C135.636 132.263 136.844 130.681 136 129.468L134.25 126.953C133.427 125.77 134.559 124.213 135.938 124.63L146.074 127.697L141.921 118.509C141.484 117.542 142.324 116.487 143.364 116.695L151.034 118.229C152.14 118.45 152.986 117.255 152.409 116.285L143.971 102.083H139.18C138.62 102.083 138.105 102.391 137.84 102.885L134.365 109.362C133.913 110.204 132.805 110.425 132.065 109.821L125.832 104.736C125.461 104.433 124.968 104.323 124.503 104.44L114.728 106.883C114.241 107.005 113.726 106.879 113.351 106.546L106.924 100.85C105.944 99.9807 104.396 100.677 104.396 101.987V112.443C104.396 113.864 102.621 114.508 101.71 113.418L92.9875 102.982C92.5447 102.453 92.5146 101.691 92.9142 101.128L100.846 89.9507C101.357 89.2317 102.369 89.0962 103.051 89.6558L113.386 98.1453C113.743 98.4384 114.213 98.5534 114.665 98.4579L125.086 96.2534C125.19 96.2315 125.295 96.2205 125.401 96.2205H135.369C136.596 96.2205 137.317 94.8434 136.619 93.8353L133.182 88.8701C132.337 87.6504 133.561 86.0674 134.954 86.5777L145.774 90.5406C146.291 90.1611 146.514 89.4111 146.105 88.7762L134.326 70.5187L120.169 66.336C119.563 66.1568 118.908 66.372 118.527 66.8765L114.047 72.7964C113.521 73.4903 112.522 73.6026 111.856 73.0425L106.025 68.139C105.036 67.3075 103.527 68.0104 103.527 69.3023V74.6354C103.527 76.1625 101.527 76.736 100.718 75.441L95.3724 66.8885C95.05 66.3727 95.0662 65.7143 95.4136 65.2149L101.12 57.0113C101.515 56.4445 102.241 56.2147 102.89 56.4516L112.498 59.9623C112.872 60.0988 113.284 60.0834 113.646 59.9195L121.534 56.3511C121.956 56.1605 122.441 56.1721 122.853 56.3826L136.336 63.2742C137.33 63.7824 138.337 63.1135 138.526 62.2194C122.951 46.6082 115.397 36.5905 110.547 16.9127C110.19 15.4622 107.679 15.5336 107.377 16.9966Z" fill="white"/>
</g>
<defs>
<clipPath id="clip0_1326_88">
<rect width="220" height="220" fill="white"/>
</clipPath>
</defs>
</svg>
