<svg width="220" height="220" viewBox="0 0 220 220" fill="none" xmlns="http://www.w3.org/2000/svg">
<g clip-path="url(#clip0_1326_81)">
<circle cx="110" cy="110" r="110" fill="white"/>
<path fill-rule="evenodd" clip-rule="evenodd" d="M107.008 22.0786C101.784 47.3923 87.4458 61.6903 80.8112 67.1286C79.8495 67.9169 80.4228 69.4658 81.6486 69.2568C82.6462 69.0867 83.7758 68.851 84.9913 68.5246C86.1777 68.206 87.2518 69.6062 86.5497 70.6143L74.8878 87.3596C74.2137 88.3275 75.1469 89.6001 76.2726 89.2484L83.0647 87.1258C84.1318 86.7924 85.0592 87.9327 84.5152 88.9095L69.8822 115.182C69.2844 116.256 70.4468 117.45 71.536 116.882L74.1955 115.494C75.2366 114.951 76.3783 116.028 75.897 117.099L65.6671 139.869C65.2347 140.831 66.1279 141.859 67.1412 141.564L74.3103 139.483C75.3935 139.169 76.2985 140.349 75.7139 141.313L62.182 163.641C61.6458 164.526 62.3674 165.639 63.3941 165.51L76.4308 163.881C76.9803 163.812 77.5085 164.117 77.7242 164.627L81.4169 173.355C81.6827 173.983 82.407 174.278 83.036 174.014L100.41 166.717C101.318 166.335 102.286 167.116 102.106 168.084L97.4415 193.12C97.2715 194.032 98.1312 194.815 99.0316 194.591C101.257 194.038 104.993 193.249 108.208 193.249C111.206 193.249 114.239 193.935 116.165 194.476C117.081 194.734 118.006 193.948 117.847 193.009L113.626 168.033C113.464 167.073 114.421 166.311 115.32 166.683L124.052 170.296C124.692 170.561 125.425 170.249 125.678 169.603L128.371 162.721C128.659 161.985 129.553 161.704 130.21 162.142L138.602 167.737C138.754 167.838 138.926 167.904 139.107 167.931L155.054 170.306C156.174 170.473 156.911 169.174 156.195 168.298L146.668 156.654C145.842 155.645 146.937 154.21 148.128 154.74L155.255 157.907C156.295 158.369 157.354 157.303 156.886 156.266L150.549 142.243L149.83 146.484C149.685 147.337 148.828 147.873 147.998 147.628L133.644 143.395C133.527 143.361 133.415 143.311 133.31 143.249L122.271 136.625C121.61 136.229 120.754 136.421 120.327 137.063L114.918 145.176C114.65 145.577 114.199 145.819 113.716 145.819H96.3403C95.8267 145.819 95.3518 145.546 95.093 145.102L90.204 136.721C89.9184 136.231 89.9457 135.62 90.2737 135.158L96.1899 126.821C97.0042 125.674 98.8115 126.25 98.8115 127.657V136.301C98.8115 137.184 99.5981 137.861 100.472 137.728L111.948 135.989C112.258 135.942 112.545 135.795 112.765 135.571L120.445 127.708C120.838 127.305 121.43 127.167 121.961 127.356L132.532 131.112C133.855 131.581 135.003 130.079 134.201 128.926L132.539 126.537C131.757 125.413 132.832 123.934 134.143 124.33L143.77 127.244L139.825 118.515C139.41 117.597 140.208 116.594 141.196 116.792L148.482 118.249C149.533 118.459 150.337 117.324 149.789 116.403L141.772 102.911H137.222C136.69 102.911 136.201 103.204 135.95 103.673L132.648 109.826C132.219 110.626 131.166 110.836 130.463 110.262L124.542 105.432C124.189 105.144 123.721 105.039 123.279 105.15L113.992 107.471C113.53 107.587 113.041 107.467 112.684 107.151L106.579 101.74C105.648 100.914 104.177 101.575 104.177 102.82V112.753C104.177 114.103 102.491 114.715 101.625 113.679L93.3393 103.765C92.9186 103.262 92.89 102.539 93.2696 102.004L100.805 91.3852C101.29 90.7022 102.252 90.5735 102.899 91.1051L112.718 99.1702C113.057 99.4486 113.504 99.5579 113.933 99.4671L123.833 97.3729C123.931 97.3521 124.032 97.3416 124.132 97.3416H133.602C134.767 97.3416 135.452 96.0334 134.789 95.0757L131.524 90.3587C130.722 89.2 131.884 87.6962 133.208 88.1809L143.485 91.9453C143.977 91.5847 144.189 90.8722 143.8 90.2691L132.609 72.9235L119.162 68.9505C118.586 68.7803 117.964 68.9848 117.601 69.464L113.346 75.0879C112.847 75.7471 111.897 75.8538 111.265 75.3217L105.725 70.6633C104.786 69.8734 103.352 70.5412 103.352 71.7685V76.8349C103.352 78.2857 101.452 78.8305 100.683 77.6002L95.6051 69.4754C95.2988 68.9853 95.3142 68.3599 95.6442 67.8855L101.066 60.092C101.44 59.5536 102.131 59.3352 102.747 59.5603L111.874 62.8955C112.229 63.0252 112.621 63.0106 112.965 62.8548L120.459 59.4649C120.859 59.2838 121.32 59.2948 121.711 59.4947L134.521 66.0418C135.465 66.5243 136.421 65.8898 136.601 65.0411C121.804 50.21 114.627 40.6931 110.02 21.9988C109.68 20.6208 107.295 20.6887 107.008 22.0786Z" fill="black"/>
</g>
<defs>
<clipPath id="clip0_1326_81">
<rect width="220" height="220" fill="white"/>
</clipPath>
</defs>
</svg>
